<?xml version="1.0" encoding="UTF-8"?><svg id="Layer_1" xmlns="http://www.w3.org/2000/svg" viewBox="0 0 32 32"><defs><style>.cls-1{fill:#fff;}.cls-2{fill:#231f20;}</style></defs><rect class="cls-1" x="1.47" y="1.22" width="29.05" height="29.62" rx="9.16" ry="9.16"/><g><path class="cls-2" d="M6.28,25.59c0-.62,.48-1.04,1.39-1.04,.85,0,1.25,.31,1.48,1.08,.17,.59,.37,.9,.82,.9,.91,0,1.08-1.21,1.08-3.17V13.12c0-1.48-.03-1.76-1.82-1.19l-.28-.51,4.32-1.37,.54,.33v12.67c0,2.86-1.56,4.32-3.98,4.32-2.1,0-3.55-.77-3.55-1.79ZM10.32,6.6c0-.79,.77-1.37,1.85-1.37s1.82,.57,1.82,1.37-.77,1.34-1.82,1.34-1.85-.57-1.85-1.34Z"/><path class="cls-2" d="M18.33,21.74c-.37-.22-.6-.15-.77,.11l-.23,.44h-.63l-.2-4.76h.63c.43,2.62,2.05,4.08,4.01,4.08,1.34,0,2.05-.71,2.05-1.83,0-.99-.6-1.41-3.24-3.06-2.42-1.48-3.24-2.34-3.24-3.59,0-1.83,1.71-3.02,3.95-3.02,1.28,0,2.16,.42,2.67,.75,.37,.26,.65,.15,.74-.11l.17-.48h.65l.11,3.86h-.62c-.34-1.72-1.59-3.08-3.5-3.08-1.14,0-1.88,.59-1.88,1.48,0,.93,.74,1.41,2.73,2.62,2.56,1.56,3.78,2.51,3.78,4.19,0,2.18-1.9,3.22-4.09,3.22-1.45,0-2.5-.46-3.1-.79Z"/></g></svg>