<?xml version="1.0" encoding="utf-8"?>
<!-- Generator: Adobe Illustrator 26.3.1, SVG Export Plug-In . SVG Version: 6.00 Build 0)  -->
<svg version="1.1" id="Layer_1" xmlns="http://www.w3.org/2000/svg" xmlns:xlink="http://www.w3.org/1999/xlink" x="0px" y="0px" width="32" height="32"
	viewBox="0 0 100 100" style="enable-background:new 0 0 100 100;" xml:space="preserve">
<style type="text/css">
	.st0{fill:none;}
</style>
<g>
	<g>
		<path class="st0" d="M91.3,29.2c-0.1-0.5-0.3-0.9-0.4-1.4c-1-2.9-2.7-5.5-4.9-7.7c-0.7-0.7-1.4-1.3-2.2-1.9c0,0,0,0,0,0
			c0,0,0,0,0,0c-0.4-0.3-0.9-0.7-1.4-1c-2.8-1.8-6-2.9-9.4-3.1c-0.6,0-1.1-0.1-1.7-0.1c-4.8,0-9.4,1.6-13.1,4.7
			c-0.5,0.4-1,0.9-1.5,1.4L51,25.9c-0.3,0.3-0.6,0.4-1,0.4s-0.8-0.2-1-0.4l-3.5-3.5l-2.3-2.3c-2.4-2.4-5.4-4.2-8.7-5.2c0,0,0,0,0,0
			c0,0,0,0,0,0c-0.5-0.1-0.9-0.3-1.4-0.4c-0.1,0-0.3-0.1-0.4-0.1c-0.3-0.1-0.7-0.1-1-0.2c-0.2,0-0.4,0-0.5-0.1
			c-0.3,0-0.6-0.1-0.9-0.1c-0.2,0-0.4,0-0.6,0c-0.3,0-0.6,0-0.9,0c-0.1,0-0.3,0-0.4,0c-0.5,0-1,0-1.5,0.1c-0.1,0-0.3,0-0.4,0
			c-0.6,0.1-1.2,0.1-1.8,0.3c-0.1,0-0.2,0-0.3,0.1c-0.5,0.1-1,0.2-1.5,0.4c-0.1,0-0.3,0.1-0.4,0.1c-0.6,0.2-1.1,0.4-1.7,0.6
			c-0.1,0-0.2,0.1-0.3,0.1c-0.5,0.2-0.9,0.4-1.4,0.7c-0.1,0.1-0.3,0.1-0.4,0.2c-0.5,0.3-1,0.6-1.5,0.9c0,0-0.1,0.1-0.1,0.1
			c-0.5,0.3-0.9,0.6-1.3,1c-0.1,0.1-0.2,0.2-0.4,0.3c-0.5,0.4-0.9,0.8-1.4,1.2c-5.4,5.4-7.4,13.2-5.2,20.5c1,3.3,2.8,6.3,5.2,8.7
			l36,36l36.1-36.2C91.4,43.8,93.3,36.3,91.3,29.2z"/>
		<path d="M93.6,26.8c-1.2-3.3-3-6.3-5.6-8.8c-0.8-0.8-1.6-1.5-2.5-2.1c-0.5-0.4-1-0.7-1.6-1.1c-3.7-2.4-8.2-3.7-12.6-3.7h0
			c-6.3,0-12.2,2.5-16.7,6.9L50,22.8l-3.3-3.3c0,0,0,0,0,0L45.3,18c-1.4-1.4-2.9-2.6-4.6-3.6c-1.7-1-3.5-1.8-5.3-2.3
			C27,9.6,18,11.9,11.9,18C5.8,24.1,3.5,33.1,6,41.4c1.1,3.7,3.2,7.2,5.9,10l1.4,1.4l8.9,8.9l8.9,8.9l8.9,8.9l8.9,8.9
			c0.3,0.3,0.6,0.4,1,0.4s0.8-0.2,1-0.4l37.2-37.2C94.6,44.7,96.7,35.4,93.6,26.8z M14,49.3c-2.4-2.4-4.2-5.4-5.2-8.7
			C6.6,33.3,8.6,25.5,14,20.1c0.4-0.4,0.9-0.8,1.4-1.2c0.1-0.1,0.2-0.2,0.4-0.3c0.4-0.3,0.9-0.7,1.3-1c0,0,0.1-0.1,0.1-0.1
			c0.5-0.3,1-0.6,1.5-0.9c0.1-0.1,0.3-0.1,0.4-0.2c0.5-0.2,0.9-0.5,1.4-0.7c0.1,0,0.2-0.1,0.3-0.1c0.5-0.2,1.1-0.4,1.7-0.6
			c0.1,0,0.3-0.1,0.4-0.1c0.5-0.1,1-0.3,1.5-0.4c0.1,0,0.2-0.1,0.3-0.1c0.6-0.1,1.2-0.2,1.8-0.3c0.1,0,0.3,0,0.4,0
			c0.5,0,1-0.1,1.5-0.1c0.1,0,0.3,0,0.4,0c0.3,0,0.6,0,0.9,0c0.2,0,0.4,0,0.6,0c0.3,0,0.6,0.1,0.9,0.1c0.2,0,0.4,0,0.5,0.1
			c0.3,0,0.7,0.1,1,0.2c0.2,0,0.3,0.1,0.4,0.1c0.5,0.1,0.9,0.2,1.4,0.4c0,0,0,0,0,0l0,0c3.3,1,6.3,2.8,8.7,5.2l2.3,2.3l3.5,3.5
			c0.3,0.3,0.6,0.4,1,0.4s0.8-0.2,1-0.4l5.8-5.8c0.5-0.5,1-0.9,1.5-1.4c3.7-3,8.3-4.7,13.1-4.7c0.6,0,1.1,0,1.7,0.1
			c3.4,0.3,6.5,1.3,9.4,3.1c0.5,0.3,0.9,0.6,1.4,1l0,0c0,0,0,0,0,0c0.7,0.6,1.5,1.2,2.2,1.9c2.2,2.2,3.8,4.8,4.9,7.7
			c0.2,0.5,0.3,0.9,0.4,1.4c2,7.1,0,14.6-5.2,19.9L50,85.3L14,49.3z"/>
	</g>
</g>
</svg>
