<?xml version="1.0" encoding="UTF-8"?><svg id="Layer_1" xmlns="http://www.w3.org/2000/svg" viewBox="0 0 151.95 38.16"><defs><style>.cls-1{fill:#231f20;}</style></defs><path class="cls-1" d="M0,35.24c0-1.01,.61-1.69,1.76-1.69,1.08,0,1.58,.5,1.87,1.76,.22,.97,.47,1.48,1.04,1.48,1.15,0,1.37-1.98,1.37-5.18V14.87c0-2.41-.04-2.88-2.3-1.94l-.36-.83,5.47-2.23,.68,.54V31.1c0,4.68-1.98,7.06-5.04,7.06-2.66,0-4.5-1.26-4.5-2.92ZM5.11,4.21c0-1.3,.97-2.23,2.34-2.23s2.3,.94,2.3,2.23-.97,2.2-2.3,2.2-2.34-.94-2.34-2.2ZM23.97,29.62l-.07-3.06-.11-.04c-1.22,1.94-2.95,3.71-5.51,3.71s-3.92-2.02-3.92-5.18V14.9c0-2.34-.11-2.77-2.3-2.09l-.25-.79,5.54-1.8,.5,.47v14c0,2.12,.65,3.13,2.02,3.13,1.44,0,2.88-1.22,4.03-2.77V14.9c0-2.34-.07-2.77-2.3-2.09l-.25-.79,5.58-1.8,.47,.47v14.69c0,2.41,.07,2.88,2.3,2.05l.32,.83-5.33,1.98-.72-.61Zm12.78-3.67c0,2.3,.32,2.84,2.52,2.84v.86h-8.57v-.86c2.2,0,2.56-.54,2.56-2.84V5.15c0-2.3,0-2.77-2.16-1.69l-.36-.79,5.47-2.66,.54,.5V25.95Zm9.76,0c0,2.3,.36,2.84,2.56,2.84v.86h-8.57v-.86c2.2,0,2.56-.54,2.56-2.84V14.87c0-2.41-.04-2.92-2.12-2.05l-.32-.83,5.29-2.12,.61,.54v15.55Zm-4.36-21.74c0-1.3,.97-2.23,2.34-2.23s2.3,.94,2.3,2.23-.97,2.2-2.3,2.2-2.34-.94-2.34-2.2Zm24.05,21.38c-.11,2.74-.97,4.64-3.35,4.64-2.05,0-3.28-1.37-3.28-4.72v-.65c-.83,3.38-2.74,5.36-5.33,5.36s-4-1.91-4-4.25c0-4.54,5.22-6.55,9.32-8.39v-2.09c0-3.1-1.01-4.18-2.77-4.18-1.4,0-2.41,.72-2.41,1.91,0,.83,.5,1.3,.5,2.12,0,.97-.61,1.66-1.76,1.66-1.3,0-1.98-.9-1.98-2.23,0-2.66,2.59-4.9,6.23-4.9s5.65,1.98,5.65,5.87v10.62c0,1.76,.36,2.2,.94,2.2,.76,0,1.33-.72,1.4-2.99h.83Zm-6.62-2.56v-4.25c-2.92,1.51-5.87,3.24-5.87,6.23,0,1.51,.68,2.48,1.94,2.48,1.44,0,2.99-1.33,3.92-4.46Zm16.7,5.9c-.47-.36-.76-.25-.97,.18l-.29,.72h-.79l-.25-7.78h.79c.54,4.28,2.59,6.66,5.08,6.66,1.69,0,2.59-1.15,2.59-2.99,0-1.62-.76-2.3-4.1-5-3.06-2.41-4.1-3.82-4.1-5.87,0-2.99,2.16-4.93,5-4.93,1.62,0,2.74,.68,3.38,1.22,.47,.43,.83,.25,.94-.18l.22-.79h.83l.14,6.3h-.79c-.43-2.81-2.02-5.04-4.43-5.04-1.44,0-2.38,.97-2.38,2.41,0,1.51,.94,2.3,3.46,4.28,3.24,2.56,4.79,4.1,4.79,6.84,0,3.56-2.41,5.25-5.18,5.25-1.84,0-3.17-.76-3.92-1.3Zm16.24-2.99c0,2.3,.32,2.84,2.23,2.84v.86h-8.13v-.86c2.09,0,2.45-.54,2.45-2.84l-.04-20.7c0-2.3,.07-2.77-2.09-1.66l-.36-.76,2.81-1.48,2.66-1.37,.47,.5V13.71h.11c1.62-2.23,3.28-3.78,5.72-3.78s3.92,1.84,3.92,5.22v10.8c0,2.3,.32,2.84,2.41,2.84v.86h-8.06v-.86c1.87,0,2.2-.54,2.2-2.84V15.33c0-1.98-.79-2.88-2.12-2.88-1.51,0-2.81,1.01-4.18,2.77v10.73Zm29.23-.36c-.11,2.74-.97,4.64-3.35,4.64-2.05,0-3.28-1.37-3.28-4.72v-.65c-.83,3.38-2.74,5.36-5.33,5.36s-4-1.91-4-4.25c0-4.54,5.22-6.55,9.32-8.39v-2.09c0-3.1-1.01-4.18-2.77-4.18-1.4,0-2.41,.72-2.41,1.91,0,.83,.5,1.3,.5,2.12,0,.97-.61,1.66-1.76,1.66-1.3,0-1.98-.9-1.98-2.23,0-2.66,2.59-4.9,6.23-4.9s5.65,1.98,5.65,5.87v10.62c0,1.76,.36,2.2,.94,2.2,.76,0,1.33-.72,1.4-2.99h.83Zm-6.62-2.56v-4.25c-2.92,1.51-5.87,3.24-5.87,6.23,0,1.51,.68,2.48,1.94,2.48,1.44,0,2.99-1.33,3.92-4.46Zm19.73-11.19c0,1.4-.83,2.3-1.76,2.3-.65,0-.94-.25-1.4-.76-.47-.47-.65-.61-1.08-.61-.83,0-1.8,1.19-2.56,3.38v9.58c0,2.45,.54,3.02,3.82,3.02v.9h-9.72v-.86c2.09,0,2.45-.54,2.45-2.84V14.87c0-2.41,0-2.92-2.16-2.02l-.36-.83,2.88-1.15,2.45-1.01,.65,.54v3.46h.11c1.01-1.91,2.77-3.92,4.75-3.92,1.26,0,1.94,.72,1.94,1.91Zm17.1,7.56c0,5.9-2.27,10.69-6.19,10.69-1.69,0-3.35-.86-4.32-2.59h-.07v6.37c0,2.34,.36,2.84,2.56,2.84v.86h-8.57v-.86c2.2,0,2.52-.5,2.52-2.84V14.87c0-2.41,0-2.92-2.16-2.05l-.32-.83,5.4-2.12,.58,.54v3.17h.14c1.4-2.3,3.06-3.64,5.08-3.64,3.64,0,5.36,3.92,5.36,9.47Zm-3.78,.54c0-4.82-.97-7.52-3.06-7.52-1.48,0-2.81,1.3-3.74,2.88v6.55c0,4.03,1.58,6.52,3.49,6.52,2.45,0,3.31-4.03,3.31-8.42Z"/></svg>