<?xml version="1.0" encoding="utf-8"?>
<!-- Generator: Adobe Illustrator 26.3.1, SVG Export Plug-In . SVG Version: 6.00 Build 0)  -->
<svg version="1.1" id="Layer_1" xmlns="http://www.w3.org/2000/svg" xmlns:xlink="http://www.w3.org/1999/xlink" x="0px" y="0px" width="40" height="40"
	viewBox="0 0 100 100" style="enable-background:new 0 0 100 100;" xml:space="preserve">
<g>
	<path d="M50,10.9c-10.2,0-18.5,8.3-18.5,18.5c0,9.9,7.8,18,17.5,18.5v40c0,0.5,0.5,1,1,1s1-0.5,1-1v-40c9.8-0.5,17.5-8.6,17.5-18.5
		C68.6,19.2,60.3,10.9,50,10.9z M50,46c-9.1,0-16.5-7.4-16.5-16.5c0-9.2,7.4-16.6,16.5-16.6s16.5,7.4,16.5,16.5
		C66.6,38.5,59.2,46,50,46z"/>
	<path d="M60.9,30.4c-0.6,0-1-0.4-1-1c0-5.4-4.4-9.9-9.9-9.9c-0.6,0-1-0.4-1-1s0.4-1,1-1c6.5,0,11.9,5.3,11.9,11.9
		C61.9,30,61.5,30.4,60.9,30.4z"/>
</g>
</svg>
